<?xml version="1.0" encoding="UTF-8"?>
<svg id="Layer_1" data-name="Layer 1" xmlns="http://www.w3.org/2000/svg" viewBox="0 0 80.29 80.29">
  <defs>
    <style>
      .cls-1 {
        fill: #4b4b4b;
      }

      .cls-2 {
        fill: #e90024;
      }
    </style>
  </defs>
  <path class="cls-1" d="m79.11,0h-9.09c-.15,0-.31.03-.45.09-.14.06-.27.15-.38.25s-.2.24-.25.38c-.06.14-.09.3-.09.45v3.37h-22.98V1.18c0-.31-.12-.61-.34-.83C45.3.12,45,0,44.69,0h-9.09C35.29,0,34.99.12,34.77.34c-.22.22-.34.52-.34.83v3.37H11.44V1.18c0-.15-.03-.31-.09-.45-.06-.14-.15-.27-.25-.38-.11-.11-.24-.2-.38-.25C10.58.03,10.42,0,10.27,0H1.18c-.15,0-.31.03-.45.09-.14.06-.27.15-.38.25s-.2.24-.25.38C.03.87,0,1.02,0,1.18v9.09c0,.15.03.31.09.45.06.14.15.27.25.38.11.11.24.2.38.25.14.06.3.09.45.09h3.37v22.98H1.18c-.31,0-.61.12-.83.34C.12,34.99,0,35.29,0,35.6v9.09C0,45,.12,45.3.34,45.52c.22.22.52.34.83.34h3.37v22.98H1.18c-.15,0-.31.03-.45.09-.14.06-.27.15-.38.25s-.2.24-.25.38C.03,69.71,0,69.87,0,70.02v9.09c0,.15.03.31.09.45.06.14.15.27.25.38s.24.2.38.25c.14.06.3.09.45.09h9.09c.15,0,.31-.03.45-.09.14-.06.27-.15.38-.25.11-.11.2-.24.25-.38s.09-.3.09-.45v-3.37h22.98v3.37c0,.31.12.61.34.83.22.22.52.34.83.34h9.09c.31,0,.61-.12.83-.34.22-.22.34-.52.34-.83v-3.37h22.98v3.37c0,.15.03.31.09.45.06.14.15.27.25.38s.24.2.38.25c.14.06.3.09.45.09h9.09c.15,0,.31-.03.45-.09.14-.06.27-.15.38-.25s.2-.24.25-.38c.06-.14.09-.3.09-.45v-9.09c0-.15-.03-.31-.09-.45-.06-.14-.15-.27-.25-.38s-.24-.2-.38-.25c-.14-.06-.3-.09-.45-.09h-3.37v-22.98h3.37c.31,0,.61-.12.83-.34.22-.22.34-.52.34-.83v-9.09c0-.31-.12-.61-.34-.83-.22-.22-.52-.34-.83-.34h-3.37V11.44h3.37c.15,0,.31-.03.45-.09s.27-.15.38-.25c.11-.11.2-.24.25-.38.06-.14.09-.3.09-.45V1.18c0-.15-.03-.31-.09-.45-.06-.14-.15-.27-.25-.38s-.24-.2-.38-.25C79.42.03,79.27,0,79.11,0Zm-42.34,2.35h6.74v6.74h-6.74V2.35ZM2.35,2.35h6.74v6.74H2.35V2.35Zm0,34.42h6.74v6.74H2.35v-6.74Zm6.74,41.16H2.35v-6.74h6.74v6.74Zm34.42,0h-6.74v-6.74h6.74v6.74Zm34.42,0h-6.74v-6.74h6.74v6.74Zm0-34.42h-6.74v-6.74h6.74v6.74Zm-4.55-9.09h-3.37c-.31,0-.61.12-.83.34-.22.22-.34.52-.34.83v9.09c0,.31.12.61.34.83.22.22.52.34.83.34h3.37v22.98h-3.37c-.15,0-.31.03-.45.09-.14.06-.27.15-.38.25s-.2.24-.25.38c-.06.14-.09.3-.09.45v3.37h-22.98v-3.37c0-.31-.12-.61-.34-.83-.22-.22-.52-.34-.83-.34h-9.09c-.31,0-.61.12-.83.34-.22.22-.34.52-.34.83v3.37H11.44v-3.37c0-.15-.03-.31-.09-.45s-.15-.27-.25-.38c-.11-.11-.24-.2-.38-.25-.14-.06-.3-.09-.45-.09h-3.37v-22.98h3.37c.31,0,.61-.12.83-.34.22-.22.34-.52.34-.83v-9.09c0-.31-.12-.61-.34-.83-.22-.22-.52-.34-.83-.34h-3.37V11.44h3.37c.15,0,.31-.03.45-.09s.27-.15.38-.25c.11-.11.2-.24.25-.38s.09-.3.09-.45v-3.37h22.98v3.37c0,.31.12.61.34.83.22.22.52.34.83.34h9.09c.31,0,.61-.12.83-.34.22-.22.34-.52.34-.83v-3.37h22.98v3.37c0,.15.03.31.09.45.06.14.15.27.25.38.11.11.24.2.38.25s.3.09.45.09h3.37v22.98Zm4.55-25.33h-6.74V2.35h6.74v6.74Z"/>
  <path class="cls-2" d="m63.66,15.45H16.63c-.15,0-.31.03-.45.09-.14.06-.27.15-.38.25s-.2.24-.25.38c-.06.14-.09.3-.09.45v47.03c0,.15.03.31.09.45.06.14.15.27.25.38s.24.2.38.25c.14.06.3.09.45.09h47.03c.15,0,.31-.03.45-.09.14-.06.27-.15.38-.25s.2-.24.25-.38c.06-.14.09-.3.09-.45V16.63c0-.15-.03-.31-.09-.45-.06-.14-.15-.27-.25-.38s-.24-.2-.38-.25c-.14-.06-.3-.09-.45-.09Zm-1.18,47.03H17.8V17.8h44.68v44.68Z"/>
</svg>