<svg width="63" height="63" viewBox="0 0 63 63" fill="none" xmlns="http://www.w3.org/2000/svg">
<path d="M46.7329 41.1997C50.5443 41.3432 53.2919 42.6224 55.314 44.4263C57.4924 46.3698 58.9226 49.0082 59.8481 51.7534C60.772 54.4936 61.1655 57.2578 61.3247 59.354C61.3839 60.1339 61.4105 60.8158 61.4204 61.3618H1.60303C1.65004 60.8346 1.71832 60.1908 1.81885 59.4614C2.10774 57.3654 2.65309 54.596 3.67334 51.8472C5.66025 46.4939 9.25433 41.629 15.9321 41.3062C19.5854 45.7716 25.5016 49.1196 31.4575 49.1196C37.4428 49.1195 43.1206 45.701 46.7329 41.1997Z" stroke="#E90024" stroke-width="3"/>
<path d="M31.4445 9.4375C38.2706 9.44109 43.4865 14.3194 43.4865 19.959C43.4864 22.9294 42.0914 27.4937 39.7423 31.332C38.5786 33.2335 37.227 34.8778 35.7814 36.0322C34.3369 37.1858 32.8758 37.792 31.4454 37.792C30.0188 37.792 28.5599 37.1862 27.1163 36.0322C25.6718 34.8774 24.321 33.232 23.1573 31.3301C20.8086 27.4909 19.4123 22.9271 19.4122 19.959C19.4122 14.3148 24.6283 9.43796 31.4445 9.4375Z" stroke="#E90024" stroke-width="3"/>
<path d="M47.4629 29.0483C47.4612 29.0486 47.4586 29.0489 47.4561 29.0493C47.4607 29.0484 47.4642 29.0477 47.4658 29.0474C47.4649 29.0475 47.464 29.0481 47.4629 29.0483ZM44.6162 14.7153C44.6162 14.7153 44.6165 14.714 44.6182 14.7104V14.7085C44.6164 14.7126 44.6162 14.7153 44.6162 14.7153ZM44.8125 10.8276C44.8125 11.1504 44.8953 10.176 44.8105 9.44385C44.7088 8.56463 44.3916 7.42604 43.5439 6.30908C41.8251 4.04425 38.2915 2.30713 31.4922 2.30713C24.6879 2.30719 21.1194 4.04693 19.3457 6.28369C17.6173 8.46333 17.9299 10.786 17.9395 10.8276V14.0737L18.0469 14.3423C18.0659 14.3899 18.085 14.4321 18.1006 14.4663C18.1035 14.4727 18.1066 14.4788 18.1094 14.4849V25.0562C18.0867 25.0967 18.0031 25.2123 17.7314 25.3677C17.2962 25.6165 16.5955 25.8179 15.7422 25.8179C14.889 25.8178 14.1912 25.6166 13.7588 25.3687C13.4891 25.214 13.4063 25.0987 13.3838 25.0581V14.311C13.4061 14.2701 13.4887 14.1549 13.7578 14.0005C14.1786 13.7591 14.8538 13.5622 15.6836 13.5532C15.7299 13.5577 15.7855 13.564 15.8486 13.564H17.3486V9.41064C17.3486 9.34354 17.3014 7.45225 18.8936 5.57568C20.4558 3.73443 23.8771 1.58649 31.4922 1.58643C39.1115 1.58643 42.5354 3.7343 44.0986 5.57568C45.6916 7.45223 45.6445 9.34368 45.6445 9.41064V13.4683L47.1387 13.4741C48.0004 13.4773 48.7033 13.6823 49.1387 13.9351C49.4304 14.1045 49.5083 14.2298 49.5264 14.2681L49.5625 33.937H44.876V33.1177H48.75V26.0659H47.25C47.169 26.0659 47.0985 26.0718 47.042 26.0786C46.2123 26.0666 45.5342 25.8682 45.1084 25.6216C44.8104 25.449 44.7324 25.3216 44.7148 25.2837V14.4819C44.7336 14.4294 44.7539 14.3656 44.7715 14.2925L44.8125 14.1196V10.8276Z" stroke="#E90024" stroke-width="3"/>
</svg>
