<svg width="80" height="80" viewBox="0 0 80 80" fill="none" xmlns="http://www.w3.org/2000/svg">
<g clip-path="url(#clip0_14_102)">
<path d="M62.3421 0C63.4536 0.383534 64.5182 0.831641 65.2559 1.82765C65.9174 2.718 66.2461 3.70814 66.2461 4.80787C66.25 10.328 66.252 15.8482 66.2442 21.3663C66.2422 22.7263 65.2677 23.5247 64.1483 23.1196C63.4693 22.875 63.1249 22.2723 63.1249 21.2822C63.1209 17.4292 63.1229 13.5743 63.1229 9.7214C63.1229 8.15987 63.1307 6.59638 63.1209 5.03486C63.1131 3.71597 62.528 3.12502 61.2051 3.12502C42.4835 3.1211 23.7618 3.1211 5.04018 3.12502C3.64491 3.12502 3.12437 3.7238 3.12437 5.26967C3.12437 25.0843 3.12437 44.8969 3.12437 64.7115C3.12437 68.0694 3.12242 71.4292 3.12437 74.7871C3.12633 76.3232 3.66252 76.8652 5.18695 76.8652C23.8049 76.8672 42.4209 76.8672 61.0388 76.8652C62.5789 76.8652 63.119 76.331 63.1209 74.8066C63.1249 71.2394 63.1151 67.6721 63.1249 64.1049C63.1288 62.7703 64.0309 61.9954 65.1444 62.3301C65.8587 62.5453 66.2402 63.1402 66.2422 64.1068C66.2481 67.0499 66.2442 69.991 66.2442 72.934C66.2442 73.7147 66.2598 74.4975 66.2383 75.2763C66.1639 77.9454 64.2481 79.8767 61.5867 79.9843C61.4047 79.9922 61.2228 79.9883 61.0408 79.9883C42.4228 79.9883 23.8068 79.9843 5.1889 79.9941C3.07741 79.9961 1.3886 79.2564 0.496258 77.284C0.145973 76.5091 0.0168175 75.5757 0.0148606 74.7127C-0.00666528 57.5085 -0.000794581 40.2984 -0.000794581 23.0883C-0.000794581 17.3608 -0.000794581 11.6312 -0.000794581 5.90368C-0.000794581 2.37165 0.699775 1.31497 3.90518 0C23.3842 0 42.8631 0 62.3421 0Z" fill="#4B4B4B"/>
<path d="M80 27.0294C78.8787 30.4753 76.73 33.3811 74.9649 36.4827C69.9611 45.2707 64.8771 54.0137 59.7989 62.7606C59.4702 63.3261 58.9947 63.8564 58.4702 64.2497C55.4566 66.5176 52.4175 68.7543 49.3569 70.9596C48.9244 71.2707 48.3198 71.5055 47.8012 71.4958C46.9695 71.4801 46.4568 70.7111 46.5429 69.7464C46.6995 67.9853 46.9108 66.228 47.1045 64.4708C47.3374 62.3516 47.5527 60.2285 47.8305 58.1151C47.9088 57.5124 48.0791 56.8765 48.3785 56.356C54.7541 45.2668 61.1472 34.1893 67.5522 23.1157C69.4915 19.7618 73.0256 18.5897 76.3602 20.206C78.229 21.112 79.3464 22.6539 79.8356 24.6616C79.8767 24.8299 79.9452 24.9923 80 25.1567C80 25.779 80 26.4051 80 27.0294ZM67.3584 29.7004C62.0885 38.825 56.8479 47.9026 51.578 57.0271C53.6014 58.1934 55.5486 59.3166 57.5348 60.4613C62.8126 51.3211 68.0434 42.2592 73.3074 33.1385C71.3153 31.9879 69.3682 30.8627 67.3584 29.7004ZM74.8886 30.4401C75.4874 29.3579 76.1019 28.3913 76.5754 27.3601C77.2936 25.7907 76.6635 23.9787 75.188 23.102C73.7536 22.2508 71.8045 22.5307 70.8241 23.8535C70.1079 24.8201 69.5541 25.9061 68.9024 26.9843C70.918 28.1467 72.8456 29.2601 74.8886 30.4401ZM50.0105 66.6194C51.803 65.2986 53.484 64.0619 55.2511 62.7586C53.7149 61.8722 52.2786 61.0425 50.7346 60.1522C50.4861 62.3594 50.2571 64.4102 50.0105 66.6194Z" fill="#4B4B4B"/>
<path d="M47.4979 22.8261C47.4822 30.7277 41.0264 37.1792 33.1303 37.1812C25.2088 37.1851 18.7197 30.6729 18.753 22.7537C18.7862 14.8599 25.2773 8.41226 33.1616 8.4377C41.0616 8.46509 47.5116 14.9402 47.4979 22.8261ZM42.1125 29.3931C45.1515 25.7202 45.4744 18.8909 40.7094 14.5214C36.095 10.2908 29.0345 10.6254 24.7548 15.3315C20.6061 19.8909 21.4731 26.3425 24.1677 29.3775C25.3066 27.7063 26.8565 26.5147 28.6686 25.6028C27.4279 23.8925 27.3183 22.0492 27.6295 20.1511C28.0463 17.6112 30.1852 15.7601 32.8387 15.5879C35.3416 15.4235 37.7408 17.0281 38.4374 19.4408C39.0538 21.5737 38.9306 23.6558 37.5959 25.6302C39.4452 26.5049 40.9501 27.7455 42.1125 29.3931ZM26.3614 31.7237C30.6861 35.0796 36.5216 34.5336 39.864 31.6845C38.32 29.2033 36.095 27.8472 33.1734 27.8335C30.2184 27.8179 27.9621 29.1681 26.3614 31.7237ZM35.6254 21.7107C35.8015 19.5582 34.2242 18.6053 32.9816 18.6933C31.7957 18.7774 30.8388 19.6384 30.6529 20.8341C30.3593 22.7165 30.9738 24.0393 32.3143 24.5442C33.69 25.0627 35.8191 24.096 35.6254 21.7107Z" fill="#E90024"/>
<path d="M30.3906 45.3098C26.9269 45.3098 23.4652 45.3098 20.0015 45.3079C19.7412 45.3079 19.477 45.3177 19.2226 45.2805C18.4066 45.1592 17.8254 44.5075 17.8254 43.7463C17.8254 42.9832 18.4066 42.3355 19.2246 42.2142C19.4809 42.177 19.7431 42.1868 20.0034 42.1868C26.9817 42.1848 33.96 42.1848 40.9364 42.1848C40.9892 42.1848 41.0401 42.1848 41.0929 42.1848C42.359 42.1926 43.1124 42.7758 43.1124 43.7483C43.1124 44.7208 42.359 45.3079 41.091 45.3079C37.5235 45.3118 33.9561 45.3098 30.3906 45.3098Z" fill="#E90024"/>
<path d="M30.4709 50.9336C33.96 50.9336 37.4492 50.9336 40.9383 50.9356C41.1986 50.9356 41.4628 50.9258 41.7172 50.963C42.5312 51.0843 43.1124 51.7359 43.1124 52.499C43.1105 53.2641 42.5293 53.9118 41.7132 54.0312C41.4569 54.0684 41.1947 54.0586 40.9344 54.0586C33.9561 54.0606 26.9778 54.0586 20.0015 54.0586C19.9486 54.0586 19.8977 54.0586 19.8449 54.0586C18.5788 54.0508 17.8254 53.4657 17.8273 52.4932C17.8293 51.5206 18.5827 50.9356 19.8508 50.9336C23.3888 50.9317 26.9308 50.9336 30.4709 50.9336Z" fill="#E90024"/>
<path d="M30.5472 59.6825C34.0109 59.6825 37.4726 59.6825 40.9364 59.6845C41.1966 59.6845 41.4608 59.6747 41.7152 59.7118C42.5293 59.8312 43.1124 60.4828 43.1124 61.246C43.1124 62.0091 42.5293 62.6607 41.7152 62.7801C41.4588 62.8173 41.1966 62.8075 40.9364 62.8075C33.9581 62.8095 26.9798 62.8095 20.0034 62.8095C19.9506 62.8095 19.8997 62.8095 19.8469 62.8095C18.5807 62.8016 17.8254 62.2185 17.8273 61.246C17.8273 60.2734 18.5807 59.6864 19.8488 59.6845C23.4143 59.6805 26.9817 59.6825 30.5472 59.6825Z" fill="#E90024"/>
<path d="M37.4218 68.4334C38.6977 68.4334 39.9736 68.4256 41.2495 68.4353C42.3825 68.4451 43.1124 69.0674 43.1124 69.9949C43.1124 70.9244 42.3825 71.5506 41.2495 71.5545C38.6468 71.5643 36.0422 71.5643 33.4395 71.5545C32.3064 71.5506 31.5746 70.9244 31.5746 69.9949C31.5746 69.0674 32.3045 68.4451 33.4395 68.4353C34.7663 68.4256 36.095 68.4334 37.4218 68.4334Z" fill="#E90024"/>
<path d="M12.6709 45.2961C11.8529 45.2766 11.1328 44.5251 11.1524 43.715C11.1739 42.8971 11.9253 42.175 12.7335 42.1946C13.5652 42.2161 14.2501 42.9382 14.2345 43.7777C14.2208 44.6132 13.4948 45.3176 12.6709 45.2961Z" fill="#E90024"/>
<path d="M14.2364 52.46C14.254 53.3014 13.573 54.0235 12.7394 54.0469C11.9312 54.0704 11.1778 53.3503 11.1524 52.5324C11.1289 51.7222 11.8471 50.9708 12.665 50.9473C13.4889 50.9239 14.2188 51.6264 14.2364 52.46Z" fill="#E90024"/>
<path d="M12.7394 59.6943C13.573 59.7197 14.254 60.4418 14.2364 61.2813C14.2188 62.1149 13.4908 62.8173 12.667 62.7939C11.849 62.7704 11.1289 62.017 11.1543 61.2089C11.1778 60.3909 11.9312 59.6708 12.7394 59.6943Z" fill="#E90024"/>
</g>
<defs>
<clipPath id="clip0_14_102">
<rect width="80" height="80" fill="white"/>
</clipPath>
</defs>
</svg>
