<svg width="81" height="80" viewBox="0 0 81 80" fill="none" xmlns="http://www.w3.org/2000/svg">
<path d="M-2.30032e-05 73.4234C0.32964 72.7996 0.845268 72.5742 1.55743 72.593C3.02612 72.6306 4.49692 72.6034 6.06283 72.6034C6.06283 72.2091 6.06283 71.9045 6.06283 71.5998C6.06283 66.1061 6.06283 60.6145 6.06283 55.1208C6.06283 53.6456 6.37558 53.341 7.8802 53.341C11.7559 53.3389 15.6315 53.3389 19.5051 53.341C20.9061 53.341 21.2168 53.654 21.2168 55.0478C21.2189 60.5415 21.2168 66.0331 21.2168 71.5268C21.2168 71.8377 21.2168 72.1486 21.2168 72.5325C22.1086 72.5325 22.9602 72.5325 23.9217 72.5325C23.9365 72.2425 23.9703 71.9191 23.9703 71.5977C23.9724 63.6044 23.9724 55.6132 23.9724 47.6199C23.9724 46.0321 24.2429 45.7692 25.8595 45.7692C29.7352 45.7692 33.6109 45.7671 37.4844 45.7692C38.7608 45.7692 39.1116 46.1176 39.1116 47.3987C39.1137 55.4442 39.1137 63.4876 39.1137 71.5331C39.1137 71.844 39.1137 72.1528 39.1137 72.5346C40.0372 72.5346 40.9099 72.5346 41.8799 72.5346C41.8799 72.1778 41.8799 71.846 41.8799 71.5164C41.8799 60.3996 41.8799 49.2828 41.8799 38.166C41.8799 36.5406 42.1441 36.284 43.822 36.284C47.6448 36.284 51.4676 36.2819 55.2883 36.284C56.6704 36.284 57.0191 36.6262 57.0191 37.9928C57.0212 49.1618 57.0212 60.3307 57.0212 71.4997C57.0212 71.8314 57.0212 72.1653 57.0212 72.5513C57.9616 72.5513 58.8132 72.5513 59.7768 72.5513C59.7768 72.2028 59.7768 71.8753 59.7768 71.5477C59.7768 58.2964 59.7768 45.0451 59.7768 31.7939C59.7768 30.2582 60.0516 29.9912 61.6217 29.9912C65.5227 29.9912 69.4237 29.9891 73.3269 29.9912C74.5462 29.9912 74.9287 30.3646 74.9287 31.5831C74.9329 37.2062 74.9329 42.8293 74.9266 48.4524C74.9266 48.709 74.9097 48.9803 74.8294 49.2202C74.6371 49.7856 74.1679 50.1362 73.6185 49.9567C73.2191 49.8274 72.8725 49.4059 72.6126 49.0366C72.4731 48.8384 72.5598 48.4795 72.5598 48.1937C72.5576 43.2466 72.5576 38.3016 72.5576 33.3546C72.5576 33.0458 72.5576 32.7391 72.5576 32.3823C69.0729 32.3823 65.6622 32.3823 62.2007 32.3823C62.2007 45.7566 62.2007 59.1247 62.2007 72.5471C65.6199 72.5471 69.0307 72.5471 72.5576 72.5471C72.5576 72.2216 72.5576 71.9191 72.5576 71.6165C72.5576 66.2271 72.5576 60.8377 72.5576 55.4484C72.5576 55.2397 72.5576 55.0311 72.5576 54.8245C72.5619 53.702 72.9592 53.1344 73.7368 53.1386C74.5124 53.1428 74.9287 53.7249 74.9287 54.8308C74.9308 60.4017 74.9287 65.9726 74.9287 71.5456C74.9287 71.8544 74.9287 72.1653 74.9287 72.5638C75.2647 72.5784 75.5436 72.5993 75.8205 72.6013C77.1116 72.6055 78.4049 72.5909 79.6961 72.6097C80.5097 72.6222 80.9662 73.0249 80.9789 73.7823C81.0063 75.4473 81.0042 77.1144 80.9789 78.7815C80.9683 79.5097 80.5182 79.9249 79.787 79.9792C79.5503 79.9958 79.3136 79.9854 79.0748 79.9854C59.462 79.9854 39.8491 79.9854 20.2362 79.9854C19.9721 79.9854 19.7058 80.0063 19.4459 79.9729C18.7845 79.8832 18.3998 79.4993 18.3576 78.8379C18.3195 78.2203 18.8035 77.7174 19.4755 77.6527C19.7375 77.6277 20.0017 77.6444 20.2658 77.6444C39.3525 77.6444 58.4371 77.6444 77.5237 77.6444C77.8597 77.6444 78.1957 77.6444 78.574 77.6444C78.574 76.7305 78.574 75.8876 78.574 74.9966C53.1941 74.9966 27.846 74.9966 2.4323 74.9966C2.4323 75.8291 2.4323 76.6742 2.4323 77.6444C2.6711 77.6444 2.94582 77.6444 3.22265 77.6444C6.70313 77.6444 10.1815 77.6506 13.662 77.6381C14.3277 77.636 14.8729 77.7904 15.1159 78.4602C15.4075 79.2656 14.7799 79.9792 13.7613 79.9833C11.0733 79.9938 8.38315 79.9875 5.69513 79.9875C4.35111 79.9875 3.00499 79.9562 1.66309 80C0.936137 80.023 0.378245 79.8268 -0.00213623 79.2072C-2.30032e-05 77.2772 -2.30032e-05 75.3513 -2.30032e-05 73.4234ZM44.2827 72.6034C44.6144 72.6034 44.8722 72.6034 45.1301 72.6034C48.0019 72.6034 50.8759 72.5763 53.7478 72.6222C54.4917 72.6347 54.6628 72.4052 54.6607 71.7042C54.6396 60.9817 54.6459 50.2593 54.6438 39.5368C54.6438 39.2593 54.6185 38.9818 54.6037 38.6897C51.1211 38.6897 47.7166 38.6897 44.2805 38.6897C44.2827 49.9922 44.2827 61.2279 44.2827 72.6034ZM36.6772 72.5596C36.6772 64.3952 36.6772 56.2767 36.6772 48.1749C33.2072 48.1749 29.7986 48.1749 26.4174 48.1749C26.4174 56.3372 26.4174 64.4369 26.4174 72.5596C29.8726 72.5596 33.2579 72.5596 36.6772 72.5596ZM18.814 72.5638C18.814 66.9073 18.814 61.3469 18.814 55.7509C15.3526 55.7509 11.9228 55.7509 8.50572 55.7509C8.50572 61.3969 8.50572 66.972 8.50572 72.5638C11.9651 72.5638 15.3526 72.5638 18.814 72.5638Z" fill="#4B4B4B"/>
<path d="M71.9744 0C72.6485 0.427729 73.3966 0.776172 73.9798 1.30197C74.7152 1.9613 74.9244 2.90439 74.9266 3.87043C74.9308 7.90569 74.9329 11.941 74.9244 15.9762C74.9223 17.0862 74.506 17.4889 73.3987 17.4952C71.9215 17.5014 70.4465 17.5014 68.9694 17.4952C67.8494 17.491 67.4331 17.0883 67.4204 15.9992C67.4098 14.9622 67.4183 13.9273 67.4183 12.6879C67.0928 12.9884 66.89 13.1636 66.6998 13.3514C63.046 16.9589 59.3732 20.5498 55.7511 24.1865C54.6987 25.2423 53.5175 25.743 52.0234 25.7201C49.1515 25.6784 46.2775 25.7201 43.4035 25.6971C42.8604 25.693 42.4801 25.8369 42.1039 26.2438C37.5415 31.1888 32.941 36.1004 28.3933 41.0599C27.3219 42.2284 26.1047 42.7771 24.5113 42.7667C18.9218 42.7291 13.3344 42.7542 7.74495 42.7521C6.21075 42.7521 5.90222 42.4433 5.9001 40.9097C5.89799 39.5556 5.88954 38.2015 5.90222 36.8494C5.91278 35.7498 6.32698 35.343 7.44487 35.3388C9.73773 35.3304 12.0327 35.3367 14.3255 35.3367C14.4566 35.3367 14.5897 35.3325 14.7207 35.3492C15.4561 35.441 15.8957 35.9272 15.8555 36.5969C15.8175 37.2458 15.3843 37.661 14.6446 37.6694C12.8526 37.6882 11.0585 37.6777 9.26648 37.6777C8.97908 37.6777 8.69168 37.6777 8.27748 37.6777C8.27748 38.4956 8.25424 39.2676 8.29862 40.0355C8.30707 40.1669 8.58602 40.3714 8.75719 40.3902C9.19885 40.4423 9.65108 40.409 10.0991 40.409C14.9236 40.409 19.7481 40.3964 24.5726 40.4194C25.4052 40.4236 26.0054 40.1523 26.5675 39.5431C31.3222 34.3832 36.1108 29.2525 40.8677 24.0968C41.3558 23.5689 41.8757 23.3499 42.59 23.354C45.726 23.3791 48.8641 23.3478 52.0002 23.3749C52.8201 23.3811 53.4414 23.1391 54.031 22.5549C58.4117 18.1921 62.8199 13.8563 67.2175 9.51228C67.3675 9.36414 67.4901 9.15132 67.6719 9.08455C68.1072 8.92181 68.5911 8.68395 69.0159 8.74237C69.6033 8.82374 69.7914 9.36414 69.7893 9.9421C69.7808 11.4006 69.7851 12.8569 69.7893 14.3154C69.7893 14.5699 69.8125 14.8224 69.8252 15.1145C70.7339 15.1145 71.5898 15.1145 72.5154 15.1145C72.528 14.8453 72.5513 14.5908 72.5513 14.3383C72.5534 10.9791 72.5555 7.62193 72.5513 4.26269C72.5492 2.76459 72.1308 2.34521 70.6409 2.34521C67.2407 2.34312 63.8406 2.34521 60.4383 2.34521C60.1826 2.34521 59.9248 2.34521 59.6289 2.34521C59.6289 3.25074 59.6289 4.0749 59.6289 5.04095C60.2396 5.04095 60.8588 5.04095 61.478 5.04095C62.5578 5.04095 63.6398 5.04512 64.7197 5.03886C65.3156 5.03469 65.8418 5.187 66.0785 5.77539C66.3088 6.34709 66.0848 6.81863 65.6516 7.24636C61.3026 11.5299 56.9726 15.8322 52.6003 20.0928C52.2728 20.4121 51.6789 20.6124 51.2035 20.6186C47.9618 20.6645 44.718 20.6583 41.4763 20.6312C40.6986 20.6249 40.1365 20.8815 39.6145 21.447C34.8196 26.6402 29.9993 31.8126 25.2023 37.0059C24.7564 37.49 24.2767 37.7111 23.6153 37.6903C22.5354 37.6548 21.4535 37.6923 20.3736 37.6757C19.5537 37.6631 19.0634 37.225 19.0549 36.5364C19.0465 35.8604 19.5452 35.3743 20.344 35.3471C21.1597 35.3179 21.9797 35.3075 22.7954 35.3492C23.3216 35.3763 23.6681 35.1886 24.0168 34.813C28.6194 29.8326 33.2495 24.8772 37.8394 19.8863C38.8538 18.7846 40.0203 18.2672 41.5249 18.288C44.5024 18.3319 47.4821 18.311 50.4617 18.286C50.7914 18.2839 51.2077 18.1608 51.4338 17.9438C54.8636 14.595 58.2701 11.2211 61.6787 7.84936C61.7823 7.74712 61.8584 7.62193 62.0443 7.38616C60.8356 7.38616 59.7663 7.3945 58.697 7.38407C57.6044 7.37364 57.2241 7.00642 57.2156 5.93188C57.205 4.55271 57.2431 3.17146 57.2008 1.79229C57.1776 1.07663 57.3255 0.473632 57.8897 0.00417297C62.5895 0 67.283 0 71.9744 0Z" fill="#E90024"/>
</svg>
