<svg width="32" height="32" viewBox="0 0 32 32" fill="none" xmlns="http://www.w3.org/2000/svg">
<g clip-path="url(#clip0_21_708)">
<path d="M16 0.000488281C7.16338 0.000488281 1.52588e-05 7.16386 1.52588e-05 16.0005C1.52588e-05 24.837 7.16338 32.0004 16 32.0004C24.8365 32.0004 32 24.837 32 16.0005C31.9999 7.16386 24.8364 0.000488281 16 0.000488281ZM11.7311 23.7357H8.21819V12.3863H11.7311V23.7357ZM9.95793 10.9001C8.81064 10.9001 7.88055 9.9624 7.88055 8.80592C7.88055 7.6493 8.81076 6.7117 9.95793 6.7117C11.1051 6.7117 12.0352 7.6493 12.0352 8.80592C12.0352 9.96246 11.1052 10.9001 9.95793 10.9001ZM24.8959 23.7357H21.4V17.7782C21.4 16.1443 20.7793 15.2322 19.4873 15.2322C18.0812 15.2322 17.3466 16.1821 17.3466 17.7782V23.7357H13.9773V12.3863H17.3466V13.9149C17.3466 13.9149 18.3601 12.0402 20.7666 12.0402C23.1732 12.0402 24.896 13.5096 24.896 16.5495L24.8959 23.7357Z" fill="url(#paint0_linear_21_708)"/>
</g>
<defs>
<linearGradient id="paint0_linear_21_708" x1="4.68628" y1="4.68676" x2="27.3137" y2="27.3141" gradientUnits="userSpaceOnUse">
<stop stop-color="#2489BE"/>
<stop offset="1" stop-color="#0575B3"/>
</linearGradient>
<clipPath id="clip0_21_708">
<rect width="32" height="32" fill="white"/>
</clipPath>
</defs>
</svg>
